<?xml version="1.0" encoding="UTF-8"?>
<svg id="Livello_1" data-name="Livello 1" xmlns="http://www.w3.org/2000/svg" viewBox="0 0 5522.75 1080">
  <defs>
    <style>
      .cls-1 {
        fill: #005dfa;
      }

      .cls-2 {
        fill: #29b7ae;
      }

      .cls-3 {
        fill: #fff;
      }
    </style>
  </defs>
  <g>
    <path class="cls-1" d="M474.24,833.65c-213.22,5.65-380.25-178.96-358.68-390.27,1.4-14.58,4.53-34.63,8.24-48.63,3.25-16.03,9.29-31.94,14.5-47.38,3.65-7.72,11.43-26.68,15.41-33.97,3.09-5.35,9.19-16.34,12.3-21.69,3.92-7.9,15.96-23.65,20.93-31.08,99.15-133.1,280.22-182.99,434.72-122.94,98.56,37.71,178.64,117.06,218.95,215.42,21.77,59.47-62.11,93.8-88.3,36.23-17.25-51.91-48.69-99.56-91.32-135.77-99.32-86.6-251-95.1-362.33-25.36-33.2,21.24-63.24,48.42-86.92,80.1-6.28,7.8-12.46,18.84-18.24,27.09-3.79,6.07-11.83,22.38-15.43,28.92-4.2,10.09-8.32,20.29-12.36,30.47-2.82,10.3-6.52,21.41-9.14,31.71,0,0-4.05,21.69-4.05,21.69-32.71,199.56,120.66,378.55,321.72,385.48h0Z"/>
    <g>
      <path class="cls-2" d="M552.96,490.24c0,5.09-.45,9.98-1.4,14.82-.38,2.03-.83,4.07-1.4,6.04q0,.06-.06.13l-22.38-4.39c-1.97-.38-4.01-.64-6.04-.64-9.28,0-18,4.13-23.91,11.38-5.98,7.19-8.33,16.53-6.55,25.69l4.45,22.7c-4.33,1.27-8.84,2.16-13.42,2.61-2.22.19-4.51.32-6.74.38h-1.27c-43.5,0-78.73-35.23-78.73-78.73s35.23-78.73,78.73-78.73,78.73,35.23,78.73,78.73Z"/>
      <path class="cls-1" d="M474.24,717.69c-201.92,7.96-318.28-219.89-201.45-382.99,94.76-133.56,287.52-146.28,403.25-31.29,44.69,45.7-18.7,111.78-66.2,68.93-79.18-99.55-225.18-93.57-303.03,5-105.67,138.95-3.49,331.64,167.44,340.34h0Z"/>
      <path class="cls-1" d="M474.24,948.11c-183.17,6.09-361.69-108.66-434.08-278.07C-82.06,397.99,87.16,73.09,379.12,11.91c243.89-56.45,501.11,93.24,576.11,332.44,15.36,47.04,23.29,96.41,24.57,145.89.83,26.34-19.84,48.37-46.18,49.21-26.34.83-48.37-19.84-49.21-46.18,2.47-81.76-19.51-164.27-64.14-234.18-87.83-141.89-264.5-219.29-429.59-188.69C221.68,97.94,78.22,235.82,42.69,404.38c-63.06,272.47,151.81,540.55,431.55,543.74h0Z"/>
      <path class="cls-1" d="M1051.85,681.14c-4.32,3.12-9.54,5.21-15.39,5.85-2.67.32-5.41.64-7.95,1.53l-163.56,56.09c-64.99,22.26-115.93,73.51-137.81,138.7l-54.25,161.33c-.83,2.48-1.21,5.09-1.46,7.7-.7,5.91-2.73,11.19-5.85,15.58-5.91,8.33-14.63,12.08-23.47,12.08-14.31,0-28.87-9.86-32.05-26.14l-96.47-495.45-3.62-18.76c-1.53-7.57,4.39-14.37,11.7-14.37.76,0,1.59.13,2.35.25l18.63,3.62,495.2,96.53c26.26,5.09,35.87,40.06,13.99,55.45Z"/>
    </g>
  </g>
  <g>
    <path class="cls-3" d="M1598.99,738.64l-70.26-168.75h-12.48v168.75h-103.75v-418.93h139.86c70.26,0,120.82,51.22,120.82,127.39,0,43.34-16.42,80.11-45.97,101.78l85.36,189.77h-113.6ZM1537.26,404.41h-21.01v90.62h21.01c19.04,0,36.12-15.76,36.12-45.31s-17.08-45.31-36.12-45.31Z"/>
    <path class="cls-3" d="M1730.98,319.7h208.81v86.02h-106.38v80.11h87.99v86.02h-87.99v80.77h119.51v86.02h-221.94v-418.93Z"/>
    <path class="cls-3" d="M2085.56,744.55c-39.4,0-77.48-11.16-99.15-24.95l-9.19-94.55c26.92,18.39,64.35,32.18,95.21,32.18,25.61,0,44.65-8.54,44.65-30.86,0-55.16-136.58-57.13-136.58-194.37,0-70.92,48.59-118.19,125.42-118.19,40.71,0,76.17,11.82,91.27,19.7l-17.73,83.39c-14.45-7.22-41.37-15.76-62.38-15.76-22.98,0-35.46,9.85-35.46,28.23,0,55.16,139.21,61.72,139.21,192.4,0,78.14-47.28,122.79-135.27,122.79Z"/>
    <path class="cls-3" d="M2494.65,420.82c-13.79-9.19-34.15-15.1-56.47-15.1-55.81,0-90.61,51.22-90.61,124.76s34.14,124.76,95.87,124.76c19.7,0,42.02-3.94,55.81-11.82l-8.54,89.96c-15.76,7.22-39.4,11.16-66.98,11.16-94.55,0-181.23-70.91-181.23-215.38s86.68-215.37,181.23-215.37c38.74,0,70.26,8.54,89.3,19.7l-18.39,87.33Z"/>
    <path class="cls-3" d="M2687.04,746.52c-84.05,0-153-48.59-153-130.67v-296.14h104.4v287.61c0,32.83,23.64,48.59,49.25,48.59s49.9-15.76,49.9-47.93v-288.26h103.09v296.14c0,82.08-69.6,130.67-153.65,130.67Z"/>
    <path class="cls-3" d="M2884.04,319.7h208.81v86.02h-106.38v80.11h87.99v86.02h-87.99v80.77h119.51v86.02h-221.94v-418.93Z"/>
    <path class="cls-1" d="M3454.65,738.64l-9.85-154.97c-1.31-22.98-1.97-49.25-1.31-78.14h-1.31c-5.91,28.23-13.13,55.16-21.67,79.45l-51.87,154.31h-56.47l-53.19-154.31c-8.54-22.98-16.42-51.22-22.98-78.8h-1.31c1.31,29.55.66,53.84-.66,78.14l-9.85,154.31h-97.18l30.21-418.93h101.78l59.75,166.79c8.54,24.95,19.04,58.44,25.61,84.7h1.31c6.57-26.26,16.42-59.1,24.95-84.7l58.44-166.79h96.53l30.86,418.93h-101.78Z"/>
    <path class="cls-1" d="M3685.15,319.04h86.02l124.11,419.59h-103.75l-22.98-91.27h-86.67l-22.98,91.27h-97.18l123.45-419.59ZM3702.22,566.6h45.97l-14.45-55.81c-3.29-15.76-5.91-35.46-7.88-54.5h-1.31c-1.31,19.04-4.6,38.74-7.88,54.5l-14.45,55.81Z"/>
    <path class="cls-1" d="M4167.12,739.95l-112.28-158.25c-18.39-25.61-37.43-55.81-52.53-80.77l-1.31.66c1.31,24.95,2.63,55.16,2.63,78.8v158.25h-97.84v-418.93h87.33l95.87,139.21c14.45,20.36,33.49,49.91,45.31,70.92h1.31c-1.31-22.33-2.63-47.93-2.63-69.6v-140.52h98.49v420.25h-64.35Z"/>
    <path class="cls-1" d="M4366.08,319.04h86.02l124.11,419.59h-103.75l-22.98-91.27h-86.67l-22.98,91.27h-97.18l123.45-419.59ZM4383.15,566.6h45.97l-14.45-55.81c-3.29-15.76-5.91-35.46-7.88-54.5h-1.31c-1.31,19.04-4.6,38.74-7.88,54.5l-14.45,55.81Z"/>
    <path class="cls-1" d="M4756.13,746.52c-103.09,0-188.45-73.55-188.45-217.35s87.33-217.35,187.8-217.35c46.62,0,87.99,13.79,109.66,29.55l-18.39,85.36c-17.73-13.13-47.93-23.64-78.14-23.64-61.07,0-97.18,47.94-97.18,128.7,0,68.95,33.49,125.42,86.68,125.42,10.5,0,19.04-1.31,26.26-4.6v-75.51h-44.65v-82.74h140.52v215.37c-26.27,22.33-68.29,36.77-124.11,36.77Z"/>
    <path class="cls-1" d="M4920.94,319.7h208.81v86.02h-106.38v80.11h87.99v86.02h-87.99v80.77h119.51v86.02h-221.94v-418.93Z"/>
    <path class="cls-1" d="M5360.24,738.64l-70.26-168.75h-12.48v168.75h-103.75v-418.93h139.86c70.26,0,120.82,51.22,120.82,127.39,0,43.34-16.41,80.11-45.96,101.78l85.36,189.77h-113.6ZM5298.52,404.41h-21.02v90.62h21.02c19.04,0,36.11-15.76,36.11-45.31s-17.07-45.31-36.11-45.31Z"/>
  </g>
  <g>
    <path class="cls-1" d="M5483.94,318.39c-21.44,0-38.82,17.38-38.82,38.82s17.38,38.82,38.82,38.82,38.82-17.38,38.82-38.82-17.38-38.82-38.82-38.82ZM5483.94,388.11c-17.06,0-30.89-13.83-30.89-30.89s13.83-30.89,30.89-30.89,30.89,13.83,30.89,30.89-13.83,30.89-30.89,30.89Z"/>
    <path class="cls-1" d="M5505.2,361.96c-2.17,9.75-10.86,17.03-21.26,17.03-12.03,0-21.78-9.75-21.78-21.78s9.75-21.78,21.78-21.78c10.26,0,18.86,7.09,21.17,16.64h-10.46c-1.92-3.98-5.99-6.73-10.71-6.73-6.56,0-11.88,5.32-11.88,11.88s5.32,11.88,11.88,11.88c4.87,0,9.06-2.93,10.89-7.13h10.37Z"/>
  </g>
</svg>