<?xml version="1.0" encoding="UTF-8"?>
<svg id="Livello_1" data-name="Livello 1" xmlns="http://www.w3.org/2000/svg" viewBox="0 0 1063.96 1080">
  <path d="M474.24,833.65c-213.22,5.65-380.25-178.96-358.68-390.27,1.4-14.58,4.53-34.63,8.24-48.63,3.25-16.03,9.29-31.94,14.5-47.38,3.65-7.72,11.43-26.68,15.41-33.97,3.09-5.35,9.19-16.34,12.3-21.69,3.92-7.9,15.96-23.65,20.93-31.08,99.15-133.1,280.22-182.99,434.72-122.94,98.56,37.71,178.64,117.06,218.95,215.42,21.77,59.47-62.11,93.8-88.3,36.23-17.25-51.91-48.69-99.56-91.32-135.77-99.32-86.6-251-95.1-362.33-25.36-33.2,21.24-63.24,48.42-86.92,80.1-6.28,7.8-12.46,18.84-18.24,27.09-3.79,6.07-11.83,22.38-15.43,28.92-4.2,10.09-8.32,20.29-12.36,30.47-2.82,10.3-6.52,21.41-9.14,31.71,0,0-4.05,21.69-4.05,21.69-32.71,199.56,120.66,378.55,321.72,385.48h0Z"/>
  <g>
    <path d="M552.96,490.24c0,5.09-.45,9.98-1.4,14.82-.38,2.03-.83,4.07-1.4,6.04q0,.06-.06.13l-22.38-4.39c-1.97-.38-4.01-.64-6.04-.64-9.28,0-18,4.13-23.91,11.38-5.98,7.19-8.33,16.53-6.55,25.69l4.45,22.7c-4.33,1.27-8.84,2.16-13.42,2.61-2.22.19-4.51.32-6.74.38h-1.27c-43.5,0-78.73-35.23-78.73-78.73s35.23-78.73,78.73-78.73,78.73,35.23,78.73,78.73Z"/>
    <path d="M474.24,717.69c-201.92,7.96-318.28-219.89-201.45-382.99,94.76-133.56,287.52-146.28,403.25-31.29,44.69,45.7-18.7,111.78-66.2,68.93-79.18-99.55-225.18-93.57-303.03,5-105.67,138.95-3.49,331.64,167.44,340.34h0Z"/>
    <path d="M474.24,948.11c-183.17,6.09-361.69-108.66-434.08-278.07C-82.06,397.99,87.16,73.09,379.12,11.91c243.89-56.45,501.11,93.24,576.11,332.44,15.36,47.04,23.29,96.41,24.57,145.89.83,26.34-19.84,48.37-46.18,49.21-26.34.83-48.37-19.84-49.21-46.18,2.47-81.76-19.51-164.27-64.14-234.18-87.83-141.89-264.5-219.29-429.59-188.69C221.68,97.94,78.22,235.82,42.69,404.38c-63.06,272.47,151.81,540.55,431.55,543.74h0Z"/>
    <path d="M1051.85,681.14c-4.32,3.12-9.54,5.21-15.39,5.85-2.67.32-5.41.64-7.95,1.53l-163.56,56.09c-64.99,22.26-115.93,73.51-137.81,138.7l-54.25,161.33c-.83,2.48-1.21,5.09-1.46,7.7-.7,5.91-2.73,11.19-5.85,15.58-5.91,8.33-14.63,12.08-23.47,12.08-14.31,0-28.87-9.86-32.05-26.14l-96.47-495.45-3.62-18.76c-1.53-7.57,4.39-14.37,11.7-14.37.76,0,1.59.13,2.35.25l18.63,3.62,495.2,96.53c26.26,5.09,35.87,40.06,13.99,55.45Z"/>
  </g>
</svg>