<?xml version="1.0" encoding="UTF-8"?>
<svg id="Livello_1" data-name="Livello 1" xmlns="http://www.w3.org/2000/svg" viewBox="0 0 4110.25 434.7">
  <defs>
    <style>
      .cls-1 {
        fill: #005dfa;
      }

      .cls-2 {
        fill: #fff;
      }
    </style>
  </defs>
  <g>
    <path class="cls-2" d="M186.48,426.82l-70.26-168.75h-12.48v168.75H0V7.88h139.86c70.26,0,120.82,51.22,120.82,127.39,0,43.34-16.42,80.11-45.97,101.78l85.36,189.77h-113.6ZM124.76,92.59h-21.01v90.62h21.01c19.04,0,36.12-15.76,36.12-45.31s-17.08-45.31-36.12-45.31Z"/>
    <path class="cls-2" d="M318.47,7.88h208.81v86.02h-106.38v80.11h87.99v86.02h-87.99v80.77h119.51v86.02h-221.94V7.88Z"/>
    <path class="cls-2" d="M673.06,432.72c-39.4,0-77.48-11.16-99.15-24.95l-9.19-94.55c26.92,18.39,64.35,32.18,95.21,32.18,25.61,0,44.65-8.54,44.65-30.86,0-55.16-136.58-57.13-136.58-194.37,0-70.92,48.59-118.19,125.42-118.19,40.71,0,76.17,11.82,91.27,19.7l-17.73,83.39c-14.45-7.22-41.37-15.76-62.38-15.76-22.98,0-35.46,9.85-35.46,28.23,0,55.16,139.21,61.72,139.21,192.4,0,78.14-47.28,122.79-135.27,122.79Z"/>
    <path class="cls-2" d="M1082.14,109c-13.79-9.19-34.15-15.1-56.47-15.1-55.81,0-90.61,51.22-90.61,124.76s34.14,124.76,95.87,124.76c19.7,0,42.02-3.94,55.81-11.82l-8.54,89.96c-15.76,7.22-39.4,11.16-66.98,11.16-94.55,0-181.23-70.91-181.23-215.38S916.67,1.97,1011.23,1.97c38.74,0,70.26,8.54,89.3,19.7l-18.39,87.33Z"/>
    <path class="cls-2" d="M1274.54,434.7c-84.05,0-153-48.59-153-130.67V7.88h104.4v287.61c0,32.83,23.64,48.59,49.25,48.59s49.9-15.76,49.9-47.93V7.88h103.09v296.14c0,82.08-69.6,130.67-153.65,130.67Z"/>
    <path class="cls-2" d="M1471.53,7.88h208.81v86.02h-106.38v80.11h87.99v86.02h-87.99v80.77h119.51v86.02h-221.94V7.88Z"/>
    <path class="cls-1" d="M2042.15,426.82l-9.85-154.97c-1.31-22.98-1.97-49.25-1.31-78.14h-1.31c-5.91,28.23-13.13,55.16-21.67,79.45l-51.87,154.31h-56.47l-53.19-154.31c-8.54-22.98-16.42-51.22-22.98-78.8h-1.31c1.31,29.55.66,53.84-.66,78.14l-9.85,154.31h-97.18l30.21-418.93h101.78l59.75,166.79c8.54,24.95,19.04,58.44,25.61,84.7h1.31c6.57-26.26,16.42-59.1,24.95-84.7l58.44-166.79h96.53l30.86,418.93h-101.78Z"/>
    <path class="cls-1" d="M2272.64,7.22h86.02l124.11,419.59h-103.75l-22.98-91.27h-86.67l-22.98,91.27h-97.18L2272.64,7.22ZM2289.71,254.78h45.97l-14.45-55.81c-3.29-15.76-5.91-35.46-7.88-54.5h-1.31c-1.31,19.04-4.6,38.74-7.88,54.5l-14.45,55.81Z"/>
    <path class="cls-1" d="M2754.61,428.13l-112.28-158.25c-18.39-25.61-37.43-55.81-52.53-80.77l-1.31.66c1.31,24.95,2.63,55.16,2.63,78.8v158.25h-97.84V7.88h87.33l95.87,139.21c14.45,20.36,33.49,49.91,45.31,70.92h1.31c-1.31-22.33-2.63-47.93-2.63-69.6V7.88h98.49v420.25h-64.35Z"/>
    <path class="cls-1" d="M2953.58,7.22h86.02l124.11,419.59h-103.75l-22.98-91.27h-86.67l-22.98,91.27h-97.18L2953.58,7.22ZM2970.65,254.78h45.97l-14.45-55.81c-3.29-15.76-5.91-35.46-7.88-54.5h-1.31c-1.31,19.04-4.6,38.74-7.88,54.5l-14.45,55.81Z"/>
    <path class="cls-1" d="M3343.63,434.7c-103.09,0-188.45-73.55-188.45-217.35S3242.5,0,3342.97,0c46.62,0,87.99,13.79,109.66,29.55l-18.39,85.36c-17.73-13.13-47.93-23.64-78.14-23.64-61.07,0-97.18,47.94-97.18,128.7,0,68.95,33.49,125.42,86.68,125.42,10.5,0,19.04-1.31,26.26-4.6v-75.51h-44.65v-82.74h140.52v215.37c-26.27,22.33-68.29,36.77-124.11,36.77Z"/>
    <path class="cls-1" d="M3508.44,7.88h208.81v86.02h-106.38v80.11h87.99v86.02h-87.99v80.77h119.51v86.02h-221.94V7.88Z"/>
    <path class="cls-1" d="M3947.74,426.82l-70.26-168.75h-12.48v168.75h-103.75V7.88h139.86c70.26,0,120.82,51.22,120.82,127.39,0,43.34-16.41,80.11-45.96,101.78l85.36,189.77h-113.6ZM3886.02,92.59h-21.02v90.62h21.02c19.04,0,36.11-15.76,36.11-45.31s-17.07-45.31-36.11-45.31Z"/>
  </g>
  <g>
    <path class="cls-1" d="M4071.43,6.57c-21.44,0-38.82,17.38-38.82,38.82s17.38,38.82,38.82,38.82,38.82-17.38,38.82-38.82-17.38-38.82-38.82-38.82ZM4071.43,76.29c-17.06,0-30.89-13.83-30.89-30.89s13.83-30.89,30.89-30.89,30.89,13.83,30.89,30.89-13.83,30.89-30.89,30.89Z"/>
    <path class="cls-1" d="M4092.7,50.14c-2.17,9.75-10.86,17.03-21.26,17.03-12.03,0-21.78-9.75-21.78-21.78s9.75-21.78,21.78-21.78c10.26,0,18.86,7.09,21.17,16.64h-10.46c-1.92-3.98-5.99-6.73-10.71-6.73-6.56,0-11.88,5.32-11.88,11.88s5.32,11.88,11.88,11.88c4.87,0,9.06-2.93,10.89-7.13h10.37Z"/>
  </g>
</svg>